<svg width="166" height="120" viewBox="0 0 166 120" fill="none" xmlns="http://www.w3.org/2000/svg">
<path d="M141.69 1.30983C134.587 -5.79339 122.962 -7.18816 109.404 -3.74488C102.252 -15.7663 93.0454 -23 83 -23C72.9545 -23 63.7482 -15.7661 56.5961 -3.74461C43.0384 -7.18769 31.4136 -5.79299 24.3104 1.31023C17.2073 8.41339 15.8125 20.0383 19.2557 33.596C7.234 40.7481 0 49.9545 0 60C0 70.0455 7.23386 79.2518 19.2554 86.4039C15.8123 99.9616 17.207 111.586 24.3102 118.69C31.4134 125.793 43.0383 127.188 56.596 123.744C63.7481 135.766 72.9545 143 83 143C93.0455 143 102.252 135.766 109.404 123.745C122.962 127.188 134.587 125.793 141.69 118.69C148.793 111.587 150.188 99.9616 146.745 86.4038C158.766 79.2517 166 70.0454 166 60C166 49.9545 158.766 40.7482 146.745 33.5961C150.188 20.0382 148.793 8.41312 141.69 1.30983Z" fill="#BCEC30"/>
</svg>
